{"accessors" : [{"bufferView" : 0, "byteOffset" : 0, "componentType" : 5123, "count" : 8058, "type" : "SCALAR", "max" : [8057], "min" : [0]}, {"bufferView" : 1, "byteOffset" : 0, "componentType" : 5126, "count" : 8058, "type" : "VEC3", "max" : [4.871334552764893, 1.547025442123413, 2.1212010383605957], "min" : [3.714212417602539, -2.5329740047454834, -1.9473901987075806], "name" : "POSITION"}, {"bufferView" : 1, "byteOffset" : 12, "componentType" : 5126, "count" : 8058, "type" : "VEC3", "max" : [0.999829888343811, 1.0000044107437134, 1.0000044107437134], "min" : [-1.0000044107437134, -0.9986603260040283, -1.0000044107437134], "name" : "NORMAL"}, {"bufferView" : 1, "byteOffset" : 24, "componentType" : 5126, "count" : 8058, "type" : "VEC2", "max" : [0.9999999403953552, -0], "min" : [0, -1], "name" : "TEXCOORD_0"}, {"bufferView" : 0, "byteOffset" : 16116, "componentType" : 5123, "count" : 21198, "type" : "SCALAR", "max" : [21197], "min" : [0]}, {"bufferView" : 2, "byteOffset" : 0, "componentType" : 5126, "count" : 21198, "type" : "VEC3", "max" : [3.6882848739624023, 3.7072489261627197, 4.2403998374938965], "min" : [0.7720805406570435, -4.692751884460449, -4.136112213134766], "name" : "POSITION"}, {"bufferView" : 2, "byteOffset" : 12, "componentType" : 5126, "count" : 21198, "type" : "VEC3", "max" : [1.0000044107437134, 1.0000044107437134, 1.0000044107437134], "min" : [-1.0000044107437134, -1.0000044107437134, -1.0000044107437134], "name" : "NORMAL"}, {"bufferView" : 2, "byteOffset" : 24, "componentType" : 5126, "count" : 21198, "type" : "VEC2", "max" : [1, -0], "min" : [0, -0.9999999403953552], "name" : "TEXCOORD_0"}, {"bufferView" : 0, "byteOffset" : 58512, "componentType" : 5123, "count" : 3756, "type" : "SCALAR", "max" : [3755], "min" : [0]}, {"bufferView" : 3, "byteOffset" : 0, "componentType" : 5126, "count" : 3756, "type" : "VEC3", "max" : [1.1025874614715576, 0.5043146014213562, 1.0514098405838013], "min" : [0.30861011147499084, -1.4927518367767334, -0.9471220970153809], "name" : "POSITION"}, {"bufferView" : 3, "byteOffset" : 12, "componentType" : 5126, "count" : 3756, "type" : "VEC3", "max" : [1.0000044107437134, 1.0000044107437134, 0.9992706179618835], "min" : [-1.0000044107437134, -1.0000044107437134, -0.9992706179618835], "name" : "NORMAL"}, {"bufferView" : 3, "byteOffset" : 24, "componentType" : 5126, "count" : 3756, "type" : "VEC2", "max" : [1, -0], "min" : [0, -1], "name" : "TEXCOORD_0"}, {"bufferView" : 0, "byteOffset" : 66024, "componentType" : 5123, "count" : 6660, "type" : "SCALAR", "max" : [6659], "min" : [0]}, {"bufferView" : 4, "byteOffset" : 0, "componentType" : 5126, "count" : 6660, "type" : "VEC3", "max" : [0.9627143144607544, 3.4987359046936035, 4.045309543609619], "min" : [-1.4375431537628174, -4.49326753616333, -3.9410223960876465], "name" : "POSITION"}, {"bufferView" : 4, "byteOffset" : 12, "componentType" : 5126, "count" : 6660, "type" : "VEC3", "max" : [1.0000044107437134, 1.0000044107437134, 1.0000044107437134], "min" : [-1.0000044107437134, -1.0000044107437134, -1.0000044107437134], "name" : "NORMAL"}, {"bufferView" : 4, "byteOffset" : 24, "componentType" : 5126, "count" : 6660, "type" : "VEC2", "max" : [1, -0], "min" : [0, -1], "name" : "TEXCOORD_0"}, {"bufferView" : 0, "byteOffset" : 79344, "componentType" : 5123, "count" : 7368, "type" : "SCALAR", "max" : [7367], "min" : [0]}, {"bufferView" : 5, "byteOffset" : 0, "componentType" : 5126, "count" : 7368, "type" : "VEC3", "max" : [4.84126615524292, 0.10724887996912003, 0.6521438360214233], "min" : [-5.7774128913879395, -1.0927518606185913, -0.5478562116622925], "name" : "POSITION"}, {"bufferView" : 5, "byteOffset" : 12, "componentType" : 5126, "count" : 7368, "type" : "VEC3", "max" : [1.0000044107437134, 0.9995901584625244, 0.9998035430908203], "min" : [-1.0000044107437134, -0.999811589717865, -0.999810516834259], "name" : "NORMAL"}, {"bufferView" : 5, "byteOffset" : 24, "componentType" : 5126, "count" : 7368, "type" : "VEC2", "max" : [1, -0], "min" : [0, -1], "name" : "TEXCOORD_0"}, {"bufferView" : 0, "byteOffset" : 94080, "componentType" : 5123, "count" : 4428, "type" : "SCALAR", "max" : [4427], "min" : [0]}, {"bufferView" : 6, "byteOffset" : 0, "componentType" : 5126, "count" : 4428, "type" : "VEC3", "max" : [-0.24373821914196014, 2.2199442386627197, 2.7699379920959473], "min" : [-4.737412452697754, -3.212751626968384, -2.667855739593506], "name" : "POSITION"}, {"bufferView" : 6, "byteOffset" : 12, "componentType" : 5126, "count" : 4428, "type" : "VEC3", "max" : [1.0000044107437134, 0.9999914765357971, 0.9999790787696838], "min" : [-1.0000044107437134, -0.9994353652000427, -0.9999831318855286], "name" : "NORMAL"}, {"bufferView" : 6, "byteOffset" : 24, "componentType" : 5126, "count" : 4428, "type" : "VEC2", "max" : [1, -0], "min" : [0, -1], "name" : "TEXCOORD_0"}, {"bufferView" : 0, "byteOffset" : 102936, "componentType" : 5123, "count" : 2808, "type" : "SCALAR", "max" : [2807], "min" : [0]}, {"bufferView" : 7, "byteOffset" : 0, "componentType" : 5126, "count" : 2808, "type" : "VEC3", "max" : [0.6625872850418091, 2.2269251346588135, 2.772143840789795], "min" : [-1.7088085412979126, -3.210754871368408, -2.667529582977295], "name" : "POSITION"}, {"bufferView" : 7, "byteOffset" : 12, "componentType" : 5126, "count" : 2808, "type" : "VEC3", "max" : [1.0000044107437134, 1.0000044107437134, 0.9999609589576721], "min" : [-1.0000044107437134, -0.9999942183494568, -0.9999961256980896], "name" : "NORMAL"}, {"bufferView" : 7, "byteOffset" : 24, "componentType" : 5126, "count" : 2808, "type" : "VEC2", "max" : [0.9999999403953552, -0], "min" : [0, -1], "name" : "TEXCOORD_0"}, {"bufferView" : 0, "byteOffset" : 108552, "componentType" : 5123, "count" : 3720, "type" : "SCALAR", "max" : [3719], "min" : [0]}, {"bufferView" : 8, "byteOffset" : 0, "componentType" : 5126, "count" : 3720, "type" : "VEC3", "max" : [-0.0622677318751812, 1.5394296646118164, 2.0877299308776855], "min" : [-1.8966801166534424, -2.529832363128662, -1.9834420680999756], "name" : "POSITION"}, {"bufferView" : 8, "byteOffset" : 12, "componentType" : 5126, "count" : 3720, "type" : "VEC3", "max" : [1.0000044107437134, 1.0000044107437134, 0.9992705583572388], "min" : [-1.0000044107437134, -0.9970701336860657, -0.9992706179618835], "name" : "NORMAL"}, {"bufferView" : 0, "byteOffset" : 115992, "componentType" : 5123, "count" : 3780, "type" : "SCALAR", "max" : [3779], "min" : [0]}, {"bufferView" : 9, "byteOffset" : 0, "componentType" : 5126, "count" : 3780, "type" : "VEC3", "max" : [-5.017413139343262, 0.42454928159713745, 0.9714686274528503], "min" : [-5.7774128913879395, -1.4127508401870728, -0.8671809434890747], "name" : "POSITION"}, {"bufferView" : 9, "byteOffset" : 12, "componentType" : 5126, "count" : 3780, "type" : "VEC3", "max" : [1.0000044107437134, 1.0000044107437134, 0.999270498752594], "min" : [-1.0000044107437134, -0.9985376000404358, -1.0000044107437134], "name" : "NORMAL"}, {"bufferView" : 9, "byteOffset" : 24, "componentType" : 5126, "count" : 3780, "type" : "VEC2", "max" : [1.0000001192092896, -0], "min" : [0, -0.9999999403953552], "name" : "TEXCOORD_0"}, {"bufferView" : 0, "byteOffset" : 123552, "componentType" : 5123, "count" : 23394, "type" : "SCALAR", "max" : [23393], "min" : [0]}, {"bufferView" : 10, "byteOffset" : 0, "componentType" : 5126, "count" : 23394, "type" : "VEC3", "max" : [0.7720809578895569, 3.7072489261627197, 4.252143859863281], "min" : [-2.9375431537628174, -4.692751884460449, -4.14785623550415], "name" : "POSITION"}, {"bufferView" : 10, "byteOffset" : 12, "componentType" : 5126, "count" : 23394, "type" : "VEC3", "max" : [1.0000044107437134, 1.0000044107437134, 1.0000044107437134], "min" : [-1.0000044107437134, -1.0000044107437134, -1.0000044107437134], "name" : "NORMAL"}, {"bufferView" : 10, "byteOffset" : 24, "componentType" : 5126, "count" : 23394, "type" : "VEC2", "max" : [3.740000009536743, -0.23909835517406464], "min" : [-0.8988105058670044, -0.8135426044464111], "name" : "TEXCOORD_0"}], "asset" : {"generator" : "Aspose.3D 22.1", "version" : "2.0"}, "buffers" : [{"uri" : "data:application/octet-stream;base64,", "byteLength" : 2866064}], "bufferViews" : [{"buffer" : 0, "byteOffset" : 0, "byteLength" : 170340, "target" : 34963}, {"buffer" : 0, "byteOffset" : 170344, "byteLength" : 257856, "byteStride" : 32, "target" : 34962}, {"buffer" : 0, "byteOffset" : 428204, "byteLength" : 678336, "byteStride" : 32, "target" : 34962}, {"buffer" : 0, "byteOffset" : 1106544, "byteLength" : 120192, "byteStride" : 32, "target" : 34962}, {"buffer" : 0, "byteOffset" : 1226740, "byteLength" : 213120, "byteStride" : 32, "target" : 34962}, {"buffer" : 0, "byteOffset" : 1439864, "byteLength" : 235776, "byteStride" : 32, "target" : 34962}, {"buffer" : 0, "byteOffset" : 1675644, "byteLength" : 141696, "byteStride" : 32, "target" : 34962}, {"buffer" : 0, "byteOffset" : 1817344, "byteLength" : 89856, "byteStride" : 32, "target" : 34962}, {"buffer" : 0, "byteOffset" : 1907204, "byteLength" : 89280, "byteStride" : 24, "target" : 34962}, {"buffer" : 0, "byteOffset" : 1996488, "byteLength" : 120960, "byteStride" : 32, "target" : 34962}, {"buffer" : 0, "byteOffset" : 2117452, "byteLength" : 748608, "byteStride" : 32, "target" : 34962}], "images" : [{"uri" : "D:\\Descargas\\silver-painted-on-fabric-textured-background.jpg"}, {"uri" : "D:\\Descargas\\background-gd85c57745_1920.jpg"}, {"uri" : "D:\\Descargas\\shadow-pink-background-with-cement-texture.jpg"}, {"uri" : "D:\\Descargas\\background-gd85c57745_1920.jpg"}, {"uri" : "D:\\Descargas\\background-gd85c57745_1920.jpg"}, {"uri" : "D:\\Descargas\\background-gd85c57745_1920.jpg"}, {"uri" : "D:\\Descargas\\background-gd85c57745_1920.jpg"}, {"uri" : "D:\\Descargas\\silver-painted-on-fabric-textured-background.jpg"}], "materials" : [{"name" : "", "pbrMetallicRoughness" : {"baseColorFactor" : [0, 0, 0, 1], "metallicFactor" : 0, "roughnessFactor" : 0}, "emissiveFactor" : [0, 0, 0], "alphaMode" : "OPAQUE", "doubleSided" : false}, {"name" : "", "pbrMetallicRoughness" : {"baseColorFactor" : [0, 0, 0, 1], "baseColorTexture" : {"index" : 0, "texCoord" : 0}, "metallicFactor" : 0, "roughnessFactor" : 0}, "emissiveFactor" : [0, 0, 0], "alphaMode" : "OPAQUE", "doubleSided" : false}, {"name" : "", "pbrMetallicRoughness" : {"baseColorFactor" : [0, 0, 0, 1], "baseColorTexture" : {"index" : 1, "texCoord" : 0}, "metallicFactor" : 0, "roughnessFactor" : 0}, "emissiveFactor" : [0, 0, 0], "alphaMode" : "OPAQUE", "doubleSided" : false}, {"name" : "", "pbrMetallicRoughness" : {"baseColorFactor" : [0, 0, 0, 1], "baseColorTexture" : {"index" : 2, "texCoord" : 0}, "metallicFactor" : 0, "roughnessFactor" : 0}, "emissiveFactor" : [0, 0, 0], "alphaMode" : "OPAQUE", "doubleSided" : false}, {"name" : "", "pbrMetallicRoughness" : {"baseColorFactor" : [0, 0, 0, 1], "baseColorTexture" : {"index" : 3, "texCoord" : 0}, "metallicFactor" : 0, "roughnessFactor" : 0}, "emissiveFactor" : [0, 0, 0], "alphaMode" : "OPAQUE", "doubleSided" : false}, {"name" : "", "pbrMetallicRoughness" : {"baseColorFactor" : [0, 0, 0, 1], "baseColorTexture" : {"index" : 4, "texCoord" : 0}, "metallicFactor" : 0, "roughnessFactor" : 0}, "emissiveFactor" : [0, 0, 0], "alphaMode" : "OPAQUE", "doubleSided" : false}, {"name" : "", "pbrMetallicRoughness" : {"baseColorFactor" : [0, 0, 0, 1], "baseColorTexture" : {"index" : 5, "texCoord" : 0}, "metallicFactor" : 0, "roughnessFactor" : 0}, "emissiveFactor" : [0, 0, 0], "alphaMode" : "OPAQUE", "doubleSided" : false}, {"name" : "", "pbrMetallicRoughness" : {"baseColorFactor" : [0, 0, 0, 1], "baseColorTexture" : {"index" : 6, "texCoord" : 0}, "metallicFactor" : 0, "roughnessFactor" : 0}, "emissiveFactor" : [0, 0, 0], "alphaMode" : "OPAQUE", "doubleSided" : false}, {"name" : "", "pbrMetallicRoughness" : {"baseColorFactor" : [0, 0, 0, 1], "metallicFactor" : 0, "roughnessFactor" : 0}, "emissiveFactor" : [0, 0, 0], "alphaMode" : "OPAQUE", "doubleSided" : false}, {"name" : "", "pbrMetallicRoughness" : {"baseColorFactor" : [0, 0, 0, 1], "baseColorTexture" : {"index" : 7, "texCoord" : 0}, "metallicFactor" : 0, "roughnessFactor" : 0}, "emissiveFactor" : [0, 0, 0], "alphaMode" : "OPAQUE", "doubleSided" : false}], "meshes" : [{"primitives" : [{"attributes" : {"POSITION" : 1, "NORMAL" : 2, "TEXCOORD_0" : 3}, "indices" : 0, "material" : 0, "mode" : 4}], "name" : ""}, {"primitives" : [{"attributes" : {"POSITION" : 5, "NORMAL" : 6, "TEXCOORD_0" : 7}, "indices" : 4, "material" : 1, "mode" : 4}], "name" : ""}, {"primitives" : [{"attributes" : {"POSITION" : 9, "NORMAL" : 10, "TEXCOORD_0" : 11}, "indices" : 8, "material" : 2, "mode" : 4}], "name" : ""}, {"primitives" : [{"attributes" : {"POSITION" : 13, "NORMAL" : 14, "TEXCOORD_0" : 15}, "indices" : 12, "material" : 3, "mode" : 4}], "name" : ""}, {"primitives" : [{"attributes" : {"POSITION" : 17, "NORMAL" : 18, "TEXCOORD_0" : 19}, "indices" : 16, "material" : 4, "mode" : 4}], "name" : ""}, {"primitives" : [{"attributes" : {"POSITION" : 21, "NORMAL" : 22, "TEXCOORD_0" : 23}, "indices" : 20, "material" : 5, "mode" : 4}], "name" : ""}, {"primitives" : [{"attributes" : {"POSITION" : 25, "NORMAL" : 26, "TEXCOORD_0" : 27}, "indices" : 24, "material" : 6, "mode" : 4}], "name" : ""}, {"primitives" : [{"attributes" : {"POSITION" : 29, "NORMAL" : 30}, "indices" : 28, "material" : 7, "mode" : 4}], "name" : ""}, {"primitives" : [{"attributes" : {"POSITION" : 32, "NORMAL" : 33, "TEXCOORD_0" : 34}, "indices" : 31, "material" : 8, "mode" : 4}], "name" : ""}, {"primitives" : [{"attributes" : {"POSITION" : 36, "NORMAL" : 37, "TEXCOORD_0" : 38}, "indices" : 35, "material" : 9, "mode" : 4}], "name" : ""}], "nodes" : [{"mesh" : 0, "name" : "MeshBody1"}, {"mesh" : 1, "name" : "MeshBody2"}, {"mesh" : 2, "name" : "MeshBody3"}, {"mesh" : 3, "name" : "MeshBody4"}, {"mesh" : 4, "name" : "MeshBody5"}, {"mesh" : 5, "name" : "MeshBody6"}, {"mesh" : 6, "name" : "MeshBody7"}, {"mesh" : 7, "name" : "MeshBody8"}, {"mesh" : 8, "name" : "MeshBody9"}, {"mesh" : 9, "name" : "MeshBody10"}, {"children" : [0, 1, 2, 3, 4, 5, 6, 7, 8, 9], "matrix" : [1, 0, 0, 0, 0, 0.999999999999999, 4.3711388397760225E-08, 0, 0, -4.3711388397760225E-08, 0.999999999999999, 0, 0, 0, 0, 1], "name" : "Prueba alternador 3 v5"}], "samplers" : [{"magFilter" : 9729, "minFilter" : 9729, "wrapS" : 10497, "wrapT" : 10497}, {"magFilter" : 9729, "minFilter" : 9729, "wrapS" : 10497, "wrapT" : 10497}, {"magFilter" : 9729, "minFilter" : 9729, "wrapS" : 10497, "wrapT" : 10497}, {"magFilter" : 9729, "minFilter" : 9729, "wrapS" : 10497, "wrapT" : 10497}, {"magFilter" : 9729, "minFilter" : 9729, "wrapS" : 10497, "wrapT" : 10497}, {"magFilter" : 9729, "minFilter" : 9729, "wrapS" : 10497, "wrapT" : 10497}, {"magFilter" : 9729, "minFilter" : 9729, "wrapS" : 10497, "wrapT" : 10497}, {"magFilter" : 9729, "minFilter" : 9729, "wrapS" : 10497, "wrapT" : 10497}], "scene" : 0, "scenes" : [{"nodes" : [10]}], "textures" : [{"sampler" : 0, "source" : 0}, {"sampler" : 1, "source" : 1}, {"sampler" : 2, "source" : 2}, {"sampler" : 3, "source" : 3}, {"sampler" : 4, "source" : 4}, {"sampler" : 5, "source" : 5}, {"sampler" : 6, "source" : 6}, {"sampler" : 7, "source" : 7}]}