{"accessors" : [{"bufferView" : 0, "byteOffset" : 0, "componentType" : 5123, "count" : 23982, "type" : "SCALAR", "max" : [23981], "min" : [0]}, {"bufferView" : 1, "byteOffset" : 0, "componentType" : 5126, "count" : 23982, "type" : "VEC3", "max" : [0.41115108132362366, 6.7038092613220215, 15.72500991821289], "min" : [-0.5265696048736572, -3.929673910140991, -15.722949028015137], "name" : "POSITION"}, {"bufferView" : 1, "byteOffset" : 12, "componentType" : 5126, "count" : 23982, "type" : "VEC3", "max" : [1.0000044107437134, 1.0000044107437134, 1.0000044107437134], "min" : [-6.108439265517518E-06, -1.0000044107437134, -1.0000044107437134], "name" : "NORMAL"}, {"bufferView" : 1, "byteOffset" : 24, "componentType" : 5126, "count" : 23982, "type" : "VEC2", "max" : [0.9613946676254272, -0.003068685531616211], "min" : [0.003075357060879469, -0.93911212682724], "name" : "TEXCOORD_0"}, {"bufferView" : 0, "byteOffset" : 47964, "componentType" : 5123, "count" : 6, "type" : "SCALAR", "max" : [5], "min" : [0]}, {"bufferView" : 2, "byteOffset" : 0, "componentType" : 5126, "count" : 6, "type" : "VEC3", "max" : [-0.16498592495918274, -2.1174416542053223, 2.2952702045440674], "min" : [-0.16498610377311707, -3.1174418926239014, -2.30472993850708], "name" : "POSITION"}, {"bufferView" : 2, "byteOffset" : 12, "componentType" : 5126, "count" : 6, "type" : "VEC3", "max" : [1.0000044107437134, 1.2357317927713836E-14, -3.887276278646823E-08], "min" : [1.0000044107437134, 1.2357317927713836E-14, -3.887276278646823E-08], "name" : "NORMAL"}, {"bufferView" : 2, "byteOffset" : 24, "componentType" : 5126, "count" : 6, "type" : "VEC2", "max" : [1.96999990940094, 2.2649764730431343E-07], "min" : [0, -0.9499997496604919], "name" : "TEXCOORD_0"}, {"bufferView" : 0, "byteOffset" : 47976, "componentType" : 5123, "count" : 2100, "type" : "SCALAR", "max" : [2099], "min" : [0]}, {"bufferView" : 3, "byteOffset" : 0, "componentType" : 5126, "count" : 2100, "type" : "VEC3", "max" : [0.1996859461069107, 0.9698183536529541, 1.6624717712402344], "min" : [-0.1996859610080719, -0.5315780639648438, -0.5315780639648438], "name" : "POSITION"}, {"bufferView" : 3, "byteOffset" : 12, "componentType" : 5126, "count" : 2100, "type" : "VEC3", "max" : [1.0000044107437134, 0.9999638795852661, 0.9999638795852661], "min" : [-0.9993205666542053, -0.9999638795852661, -0.9999638795852661], "name" : "NORMAL"}, {"bufferView" : 3, "byteOffset" : 24, "componentType" : 5126, "count" : 2100, "type" : "VEC2", "max" : [0.7179822325706482, -0.24115538597106934], "min" : [0.2658919095993042, -0.7804164886474609], "name" : "TEXCOORD_0"}, {"bufferView" : 0, "byteOffset" : 52176, "componentType" : 5123, "count" : 2100, "type" : "SCALAR", "max" : [2099], "min" : [0]}, {"bufferView" : 4, "byteOffset" : 0, "componentType" : 5126, "count" : 2100, "type" : "VEC3", "max" : [0.1996859610080719, 0.6403104662895203, 3.446683406829834], "min" : [-0.1996859610080719, -1.9484175443649292, -0.9621481895446777], "name" : "POSITION"}, {"bufferView" : 4, "byteOffset" : 12, "componentType" : 5126, "count" : 2100, "type" : "VEC3", "max" : [1.0000044107437134, 0.9999456405639648, 0.9999456405639648], "min" : [-0.99953293800354, -0.9999456405639648, -0.9999456405639648], "name" : "NORMAL"}, {"bufferView" : 4, "byteOffset" : 24, "componentType" : 5126, "count" : 2100, "type" : "VEC2", "max" : [0.7171922922134399, -0.013241767883300781], "min" : [0.1753591150045395, -0.06319582462310791], "name" : "TEXCOORD_0"}, {"bufferView" : 0, "byteOffset" : 56376, "componentType" : 5123, "count" : 2100, "type" : "SCALAR", "max" : [2099], "min" : [0]}, {"bufferView" : 5, "byteOffset" : 0, "componentType" : 5126, "count" : 2100, "type" : "VEC3", "max" : [0.1996859312057495, 1.4035011529922485, 1.3461370468139648], "min" : [-0.1996859461069107, -0.531578540802002, -0.5315784811973572], "name" : "POSITION"}, {"bufferView" : 5, "byteOffset" : 12, "componentType" : 5126, "count" : 2100, "type" : "VEC3", "max" : [1.0000044107437134, 0.9999638795852661, 0.9999638795852661], "min" : [-0.9993205666542053, -0.9999638795852661, -0.9999638199806213], "name" : "NORMAL"}, {"bufferView" : 5, "byteOffset" : 24, "componentType" : 5126, "count" : 2100, "type" : "VEC2", "max" : [0.9775128960609436, -0.7463940382003784], "min" : [0.6868599653244019, -0.7972326278686523], "name" : "TEXCOORD_0"}, {"bufferView" : 0, "byteOffset" : 60576, "componentType" : 5123, "count" : 2100, "type" : "SCALAR", "max" : [2099], "min" : [0]}, {"bufferView" : 6, "byteOffset" : 0, "componentType" : 5126, "count" : 2100, "type" : "VEC3", "max" : [0.1996859610080719, 0.6403104662895203, 3.4500417709350586], "min" : [-0.1996859610080719, -1.9483006000518799, -0.9586009979248047], "name" : "POSITION"}, {"bufferView" : 6, "byteOffset" : 12, "componentType" : 5126, "count" : 2100, "type" : "VEC3", "max" : [1.0000044107437134, 0.9999456405639648, 0.9999456405639648], "min" : [-0.99953293800354, -0.9999455809593201, -0.9999456405639648], "name" : "NORMAL"}, {"bufferView" : 6, "byteOffset" : 24, "componentType" : 5126, "count" : 2100, "type" : "VEC2", "max" : [0.31547191739082336, -0.052045226097106934], "min" : [0.1412368267774582, -0.2621406316757202], "name" : "TEXCOORD_0"}, {"bufferView" : 0, "byteOffset" : 64776, "componentType" : 5123, "count" : 2100, "type" : "SCALAR", "max" : [2099], "min" : [0]}, {"bufferView" : 7, "byteOffset" : 0, "componentType" : 5126, "count" : 2100, "type" : "VEC3", "max" : [0.1996859461069107, 1.3886752128601074, 0.5315790176391602], "min" : [-0.1996859461069107, -0.531578540802002, -1.3594903945922852], "name" : "POSITION"}, {"bufferView" : 7, "byteOffset" : 12, "componentType" : 5126, "count" : 2100, "type" : "VEC3", "max" : [1.0000044107437134, 0.9999638795852661, 0.9999638199806213], "min" : [-0.9993205666542053, -0.999983549118042, -0.9999639391899109], "name" : "NORMAL"}, {"bufferView" : 7, "byteOffset" : 24, "componentType" : 5126, "count" : 2100, "type" : "VEC2", "max" : [0.7179822325706482, -0.24115538597106934], "min" : [0.2086217701435089, -0.7635355591773987], "name" : "TEXCOORD_0"}, {"bufferView" : 0, "byteOffset" : 68976, "componentType" : 5123, "count" : 27288, "type" : "SCALAR", "max" : [27287], "min" : [0]}, {"bufferView" : 8, "byteOffset" : 0, "componentType" : 5126, "count" : 27288, "type" : "VEC3", "max" : [16.746496200561523, 7.608326435089111, 1.5235633850097656], "min" : [-16.737947463989258, -6.280916213989258, -5.858275890350342], "name" : "POSITION"}, {"bufferView" : 8, "byteOffset" : 12, "componentType" : 5126, "count" : 27288, "type" : "VEC3", "max" : [1.0000044107437134, 1.0000044107437134, 1.0000044107437134], "min" : [-1.0000044107437134, -0.9999598264694214, -1.0000044107437134], "name" : "NORMAL"}, {"bufferView" : 8, "byteOffset" : 24, "componentType" : 5126, "count" : 27288, "type" : "VEC2", "max" : [0.8202991485595703, -0.004892706871032715], "min" : [0.004892680328339338, -0.9951072931289673], "name" : "TEXCOORD_0"}], "asset" : {"generator" : "Aspose.3D 22.1", "version" : "2.0"}, "buffers" : [{"uri" : "data:application/octet-stream;base64,", "byteLength" : 2100420}], "bufferViews" : [{"buffer" : 0, "byteOffset" : 0, "byteLength" : 123552, "target" : 34963}, {"buffer" : 0, "byteOffset" : 123556, "byteLength" : 767424, "byteStride" : 32, "target" : 34962}, {"buffer" : 0, "byteOffset" : 890984, "byteLength" : 192, "byteStride" : 32, "target" : 34962}, {"buffer" : 0, "byteOffset" : 891180, "byteLength" : 67200, "byteStride" : 32, "target" : 34962}, {"buffer" : 0, "byteOffset" : 958384, "byteLength" : 67200, "byteStride" : 32, "target" : 34962}, {"buffer" : 0, "byteOffset" : 1025588, "byteLength" : 67200, "byteStride" : 32, "target" : 34962}, {"buffer" : 0, "byteOffset" : 1092792, "byteLength" : 67200, "byteStride" : 32, "target" : 34962}, {"buffer" : 0, "byteOffset" : 1159996, "byteLength" : 67200, "byteStride" : 32, "target" : 34962}, {"buffer" : 0, "byteOffset" : 1227200, "byteLength" : 873216, "byteStride" : 32, "target" : 34962}], "images" : [{"uri" : "D:\\Descargas\\Manuales\\Objetos mejorados\\Tablero\\Car_HiFi.fbm\\Cockpit Misc_BaseColor.png"}, {"uri" : "D:\\Descargas\\image001.png"}, {"uri" : "D:\\Descargas\\Manuales\\Objetos mejorados\\Tablero\\Car_HiFi.fbm\\Speedometer_Case_BaseColor.png"}], "materials" : [{"name" : "", "pbrMetallicRoughness" : {"baseColorFactor" : [0, 0, 0, 1], "baseColorTexture" : {"index" : 0, "texCoord" : 0}, "metallicFactor" : 0, "roughnessFactor" : 0}, "emissiveFactor" : [0, 0, 0], "alphaMode" : "OPAQUE", "doubleSided" : false}, {"name" : "", "pbrMetallicRoughness" : {"baseColorFactor" : [0, 0, 0, 1], "baseColorTexture" : {"index" : 1, "texCoord" : 0}, "metallicFactor" : 0, "roughnessFactor" : 0}, "emissiveFactor" : [0, 0, 0], "alphaMode" : "OPAQUE", "doubleSided" : false}, {"name" : "", "pbrMetallicRoughness" : {"baseColorFactor" : [0, 0, 0, 1], "baseColorTexture" : {"index" : 0, "texCoord" : 0}, "metallicFactor" : 0, "roughnessFactor" : 0}, "emissiveFactor" : [0, 0, 0], "alphaMode" : "OPAQUE", "doubleSided" : false}, {"name" : "", "pbrMetallicRoughness" : {"baseColorFactor" : [0, 0, 0, 1], "baseColorTexture" : {"index" : 0, "texCoord" : 0}, "metallicFactor" : 0, "roughnessFactor" : 0}, "emissiveFactor" : [0, 0, 0], "alphaMode" : "OPAQUE", "doubleSided" : false}, {"name" : "", "pbrMetallicRoughness" : {"baseColorFactor" : [0, 0, 0, 1], "baseColorTexture" : {"index" : 0, "texCoord" : 0}, "metallicFactor" : 0, "roughnessFactor" : 0}, "emissiveFactor" : [0, 0, 0], "alphaMode" : "OPAQUE", "doubleSided" : false}, {"name" : "", "pbrMetallicRoughness" : {"baseColorFactor" : [0, 0, 0, 1], "baseColorTexture" : {"index" : 0, "texCoord" : 0}, "metallicFactor" : 0, "roughnessFactor" : 0}, "emissiveFactor" : [0, 0, 0], "alphaMode" : "OPAQUE", "doubleSided" : false}, {"name" : "", "pbrMetallicRoughness" : {"baseColorFactor" : [0, 0, 0, 1], "baseColorTexture" : {"index" : 0, "texCoord" : 0}, "metallicFactor" : 0, "roughnessFactor" : 0}, "emissiveFactor" : [0, 0, 0], "alphaMode" : "OPAQUE", "doubleSided" : false}, {"name" : "", "pbrMetallicRoughness" : {"baseColorFactor" : [0, 0, 0, 1], "baseColorTexture" : {"index" : 2, "texCoord" : 0}, "metallicFactor" : 0, "roughnessFactor" : 0}, "emissiveFactor" : [0, 0, 0], "alphaMode" : "OPAQUE", "doubleSided" : false}], "meshes" : [{"primitives" : [{"attributes" : {"POSITION" : 1, "NORMAL" : 2, "TEXCOORD_0" : 3}, "indices" : 0, "material" : 0, "mode" : 4}, {"attributes" : {"POSITION" : 5, "NORMAL" : 6, "TEXCOORD_0" : 7}, "indices" : 4, "material" : 1, "mode" : 4}], "name" : ""}, {"primitives" : [{"attributes" : {"POSITION" : 9, "NORMAL" : 10, "TEXCOORD_0" : 11}, "indices" : 8, "material" : 2, "mode" : 4}], "name" : ""}, {"primitives" : [{"attributes" : {"POSITION" : 13, "NORMAL" : 14, "TEXCOORD_0" : 15}, "indices" : 12, "material" : 3, "mode" : 4}], "name" : ""}, {"primitives" : [{"attributes" : {"POSITION" : 17, "NORMAL" : 18, "TEXCOORD_0" : 19}, "indices" : 16, "material" : 4, "mode" : 4}], "name" : ""}, {"primitives" : [{"attributes" : {"POSITION" : 21, "NORMAL" : 22, "TEXCOORD_0" : 23}, "indices" : 20, "material" : 5, "mode" : 4}], "name" : ""}, {"primitives" : [{"attributes" : {"POSITION" : 25, "NORMAL" : 26, "TEXCOORD_0" : 27}, "indices" : 24, "material" : 6, "mode" : 4}], "name" : ""}, {"primitives" : [{"attributes" : {"POSITION" : 29, "NORMAL" : 30, "TEXCOORD_0" : 31}, "indices" : 28, "material" : 7, "mode" : 4}], "name" : ""}], "nodes" : [{"matrix" : [0.9999999999999994, -2.98023223876953E-08, 1.4301750894674105E-08, 0, 2.9802322339384365E-08, 0.9999999999999996, 3.377973669621395E-09, 0, -1.4301750995345559E-08, -3.3779732433960033E-09, 0.9999999999999999, 0, 0.4293360710144043, -0.6641354560852051, 0, 1], "mesh" : 0, "name" : "speedometer_panel"}, {"matrix" : [0.9999999999999994, -2.98023223876953E-08, 1.4301750894674105E-08, 0, 2.9802322339384365E-08, 0.9999999999999996, 3.377973669621395E-09, 0, -1.4301750995345559E-08, -3.3779732433960033E-09, 0.9999999999999999, 0, 0.09862864017486572, -2.569725751876831, -12.911715507507324, 1], "mesh" : 1, "name" : "temperature_pointer"}, {"matrix" : [0.9999999999999994, -2.9802322387695296E-08, 1.4301749118317264E-08, 0, 2.8197798607292385E-08, 0.9948415189673541, 0.1014413729142451, 0, -1.7251162315797516E-08, -0.10144137291424463, 0.9948415189673544, 0, 0.11275720596313477, 0.32293128967285156, -6.281130790710449, 1], "mesh" : 2, "name" : "speed_pointer"}, {"matrix" : [0.9999999999999994, -2.98023223876953E-08, 1.4301750894674105E-08, 0, 2.9802322339384365E-08, 0.9999999999999996, 3.377973669621395E-09, 0, -1.4301750995345559E-08, -3.3779732433960033E-09, 0.9999999999999999, 0, 0.09862923622131348, 2.81577205657959, 0.0002880096435546875, 1], "mesh" : 3, "name" : "oil_pointer"}, {"matrix" : [0.9999999999999994, -2.98023223876953E-08, 1.4301749118317265E-08, 0, 2.657981687689126E-08, 0.9821463255415154, 0.18811856693399226, 0, -1.9652780524249983E-08, -0.18811856693399176, 0.9821463255415157, 0, 0.11275887489318848, 0.32293128967285156, 6.251321792602539, 1], "mesh" : 4, "name" : "rpm_pointer"}, {"matrix" : [0.9999999999999994, -2.98023223876953E-08, 1.4301750894674105E-08, 0, 2.9802322339384365E-08, 0.9999999999999996, 3.377973669621395E-09, 0, -1.4301750995345559E-08, -3.3779732433960033E-09, 0.9999999999999999, 0, 0.09863102436065674, -2.5697267055511475, 12.866565704345703, 1], "mesh" : 5, "name" : "fuel_pointer"}, {"matrix" : [-0.0007876307611685007, -0.04022729657841743, 0.9991902442717185, 0, -0.01667755165049671, 0.999052115073326, 0.04020858911300938, 0, -0.9998606097395425, -0.016632377385865427, -0.0014577769942885066, 0, -0.08223176002502441, 0.5059986114501953, -0.06765365600585938, 1], "mesh" : 6, "name" : "speedometer_case"}, {"children" : [0, 1, 2, 3, 4, 5, 6], "matrix" : [0.865761021857856, 0.4111127119626389, -0.2853842866984187, 0, -0.4111126994880957, 0.9094130197657702, 0.06288328712872573, 0, 0.28538430466872494, 0.06288320557372498, 0.9563480020920841, 0, -6.593496322631836, 5.291219711303711, -8.628507614135742, 1], "name" : "Speedometer"}], "samplers" : [{"magFilter" : 9729, "minFilter" : 9729, "wrapS" : 10497, "wrapT" : 10497}, {"magFilter" : 9729, "minFilter" : 9729, "wrapS" : 10497, "wrapT" : 10497}, {"magFilter" : 9729, "minFilter" : 9729, "wrapS" : 10497, "wrapT" : 10497}], "scene" : 0, "scenes" : [{"nodes" : [7]}], "textures" : [{"sampler" : 0, "source" : 0}, {"sampler" : 1, "source" : 1}, {"sampler" : 2, "source" : 2}]}